<svg width="63" height="73" viewBox="0 0 63 73" fill="none" xmlns="http://www.w3.org/2000/svg">
<path d="M35.872 46.612H15.96L11.248 59H0.304L21.128 5.8H25.84C29.1333 5.8 31.3627 7.32 32.528 10.36L51.452 59H40.508L35.872 46.612ZM18.772 37.796H33.06L25.992 18.644H25.916L18.772 37.796Z" fill="black"/>
<path d="M55.18 59C51.9533 59 49.5883 58.2667 48.085 56.8C46.5817 55.3333 45.83 53.06 45.83 49.98V37.935H40.99V31.555H46.05V23.25H53.31V31.555H60.46V37.935H53.31V49.65C53.31 50.6767 53.4933 51.4283 53.86 51.905C54.2633 52.3817 54.8867 52.62 55.73 52.62H60.46V59H55.18Z" fill="#E94D35"/>
</svg>
